# xmcd
#
# Track frame offsets: 
#        150
#        9224
#        20503
#        31529
#        42913
#        54447
#        64149
#        77159
#        88995
#        102642
#        112413
#        125773
#
# Disc length: 1839 seconds
#
# Revision: 0
# Processed by: cddbd v1.5.2PL0 Copyright (c) Steve Scherf et al.
# Submitted via: ExactAudioCopy v1.1
#
DISCID=9e072d0c
DTITLE=George Jones and The Jones Boys - George Jones and The Jones Boys_'
DTITLE='New Country Hits''
DYEAR=2015
DGENRE=Country
TTITLE0=Love Bug
TTITLE1=Till I Hear It From You
TTITLE2=I Made Her That Way
TTITLE3=I'm Wasting Good Paper
TTITLE4=Along Came You
TTITLE5=I'd Rather Switch Than Fight
TTITLE6=Things Have Gone To Pieces
TTITLE7=If You Won't Tell On Me (I Won't Tell On You)
TTITLE8=Memory Is
TTITLE9=Feeling Single-Seeing Double
TTITLE10=We're Watching Our Step
TTITLE11=Take Me
EXTD=
EXTT0=
EXTT1=
EXTT2=
EXTT3=
EXTT4=
EXTT5=
EXTT6=
EXTT7=
EXTT8=
EXTT9=
EXTT10=
EXTT11=
PLAYORDER=
